<?xml version="1.0" standalone="no"?>
<!DOCTYPE svg PUBLIC "-//W3C//DTD SVG 20010904//EN"
 "http://www.w3.org/TR/2001/REC-SVG-20010904/DTD/svg10.dtd">
<svg version="1.0" xmlns="http://www.w3.org/2000/svg"
 width="1410.000000pt" height="1410.000000pt" viewBox="0 0 1410.000000 1410.000000"
 preserveAspectRatio="xMidYMid meet">
<metadata>
Created by potrace 1.14, written by Peter Selinger 2001-2017
</metadata>
<g transform="translate(0.000000,1410.000000) scale(0.100000,-0.100000)"
fill="#000000" stroke="none">
<path d="M1280 10414 c-359 -55 -637 -179 -887 -393 -44 -38 -93 -86 -108
-105 -24 -32 -26 -39 -16 -69 19 -55 319 -553 325 -537 2 8 12 51 21 95 55
259 174 485 337 640 98 94 165 136 285 179 85 30 94 31 243 30 143 0 161 -2
235 -28 236 -82 387 -253 501 -570 20 -57 37 -90 46 -89 7 1 39 7 72 13 l59
12 -6 56 c-3 32 -18 185 -32 342 -15 157 -28 295 -31 307 -3 18 -19 25 -111
47 -264 62 -461 86 -683 85 -91 -1 -203 -7 -250 -15z"/>
<path d="M6425 10411 c-329 -59 -615 -237 -820 -510 -285 -379 -399 -947 -294
-1466 145 -717 653 -1173 1309 -1176 201 -1 353 28 540 102 290 116 543 366
690 684 61 130 138 387 129 427 -4 17 -702 1018 -707 1013 -2 -1 4 -40 12 -86
58 -318 67 -808 20 -1139 -75 -534 -287 -830 -595 -830 -144 0 -256 44 -362
140 -160 147 -270 382 -337 719 -43 220 -54 348 -54 641 0 287 12 414 60 630
81 362 251 611 462 679 60 20 87 23 166 19 l94 -4 -61 88 -60 88 -46 -1 c-25
0 -91 -9 -146 -18z"/>
<path d="M2880 10300 c0 -79 -13 -70 125 -89 158 -22 206 -71 225 -231 16
-129 8 -2293 -8 -2341 -19 -56 -53 -100 -94 -121 -35 -18 -135 -40 -240 -53
l-48 -6 0 -70 0 -69 1057 2 1058 3 12 55 c39 169 133 684 126 690 -4 4 -35 14
-69 22 l-61 15 -52 -128 c-68 -165 -141 -288 -212 -354 -114 -105 -207 -128
-489 -122 -154 3 -205 7 -242 21 -54 20 -91 59 -110 114 -17 50 -24 2273 -8
2372 22 130 72 178 213 200 40 6 87 13 105 16 l32 5 0 69 0 70 -660 0 -660 0
0 -70z"/>
<path d="M8320 10301 c0 -80 -12 -71 120 -91 130 -19 184 -59 211 -160 17 -62
26 -2155 9 -2312 l-11 -108 108 -154 108 -155 373 -1 372 0 0 70 0 69 -32 5
c-181 26 -231 44 -268 96 -49 69 -52 103 -57 614 l-5 479 93 -5 c168 -9 184
-27 368 -401 204 -412 343 -642 458 -754 93 -90 237 -156 406 -188 99 -18 284
-35 389 -35 l76 0 11 50 c6 28 11 56 11 63 0 7 -26 25 -58 42 -88 46 -252 215
-349 360 -79 118 -224 358 -319 525 -86 154 -244 470 -244 490 0 14 18 29 63
51 258 130 424 337 467 585 20 112 8 300 -24 399 -64 197 -181 333 -361 420
-98 47 -154 65 -285 91 -74 15 -186 18 -857 21 l-773 4 0 -70z m1367 -146
c102 -50 169 -119 222 -227 50 -103 68 -172 82 -314 11 -122 0 -275 -26 -380
-40 -157 -141 -290 -266 -351 -84 -40 -136 -50 -307 -59 l-143 -7 3 644 c3
595 4 646 21 677 10 17 19 32 20 32 1 0 20 7 42 15 29 11 71 14 157 12 112 -3
119 -4 195 -42z"/>
<path d="M11405 10108 c74 -145 316 -621 539 -1058 l405 -795 101 -3 100 -3 0
219 c0 157 4 233 14 272 32 120 256 585 467 967 195 354 231 403 338 456 37
19 99 40 137 46 126 22 114 12 114 91 l0 70 -505 0 -506 0 3 -72 3 -72 85 -12
c101 -15 166 -37 197 -66 63 -59 11 -221 -255 -803 -183 -400 -195 -425 -206
-425 -7 0 -17 12 -23 28 -6 15 -77 164 -158 332 -266 553 -348 738 -353 803
-3 44 -1 62 12 76 19 21 101 49 173 59 l48 7 3 73 3 72 -435 0 -435 0 134
-262z"/>
<path d="M1310 8711 l0 -69 68 -6 c99 -10 229 -35 273 -53 54 -21 95 -71 108
-133 7 -32 11 -193 11 -438 -1 -353 -2 -392 -20 -442 -10 -31 -29 -63 -43 -74
l-25 -18 59 -98 59 -97 87 13 c49 8 181 37 295 65 l208 51 -8 72 c-4 39 -7
283 -7 541 0 456 1 471 21 510 23 45 75 75 160 94 l54 12 0 70 0 69 -650 0
-650 0 0 -69z"/>
<path d="M6466 6586 c-48 -12 -92 -29 -96 -37 -5 -8 -194 -525 -420 -1149
-533 -1469 -535 -1474 -580 -1551 -68 -116 -157 -176 -285 -194 -89 -12 -85
-8 -85 -91 l0 -74 490 0 491 0 -3 77 -3 77 -85 16 c-179 34 -228 89 -200 226
14 70 64 246 127 442 l45 142 411 -2 410 -3 24 -70 c67 -197 164 -527 169
-575 9 -94 -33 -137 -162 -165 l-74 -17 0 -74 0 -74 625 0 625 0 0 75 c0 41
-2 75 -4 75 -2 0 -39 7 -81 15 -135 26 -208 86 -277 230 -60 126 -183 480
-575 1652 -319 956 -360 1073 -378 1072 -11 -1 -60 -11 -109 -23z m-21 -1355
c85 -278 155 -511 155 -518 0 -10 -66 -13 -336 -13 -316 0 -336 1 -329 18 3 9
47 145 96 302 96 303 229 709 236 723 3 5 9 5 14 0 4 -4 78 -235 164 -512z"/>
<path d="M11285 6595 c-237 -45 -403 -131 -551 -288 -170 -180 -252 -444 -215
-698 30 -205 115 -356 296 -527 106 -101 208 -173 422 -302 218 -131 311 -199
397 -291 118 -125 168 -244 169 -398 0 -233 -109 -398 -305 -461 l-47 -15 55
-77 c38 -55 61 -78 76 -78 36 0 230 70 298 107 251 138 413 350 466 613 22
112 15 312 -16 418 -47 166 -143 308 -299 445 -92 81 -208 159 -406 272 -316
182 -456 295 -522 420 -43 83 -54 130 -54 238 0 245 144 429 362 462 63 9 182
-10 249 -41 156 -71 285 -242 375 -497 16 -44 33 -81 39 -82 6 -2 40 1 76 8
l65 12 -1 40 c-1 22 -16 136 -33 252 -17 117 -34 249 -38 293 l-6 80 -99 31
c-185 58 -267 70 -478 75 -144 2 -216 0 -275 -11z"/>
<path d="M2286 6458 c45 -74 64 -97 95 -111 49 -23 76 -68 95 -158 14 -66 40
-115 317 -576 l302 -503 5 579 c5 566 5 580 26 608 41 57 83 68 249 68 170 -1
233 -13 354 -71 311 -146 490 -452 552 -939 16 -128 17 -492 0 -615 -49 -379
-162 -651 -347 -836 l-71 -72 64 -106 c36 -58 68 -106 72 -106 17 0 156 62
224 99 349 192 583 498 687 895 38 145 50 228 59 389 14 243 -14 477 -80 664
-166 471 -506 754 -1011 843 -206 36 -308 40 -984 40 l-663 0 55 -92z"/>
<path d="M7650 6476 l0 -73 79 -16 c149 -30 218 -83 311 -237 58 -95 450 -874
559 -1109 109 -234 103 -188 99 -729 l-3 -468 -30 -60 c-26 -51 -37 -63 -85
-86 -31 -15 -88 -32 -130 -38 -41 -6 -90 -13 -107 -16 l-33 -5 0 -74 0 -75
710 0 710 0 0 75 c0 53 -4 75 -12 75 -7 0 -60 7 -118 15 -166 24 -237 69 -272
174 -16 50 -24 950 -8 1037 17 102 199 499 394 862 l88 164 -56 81 c-75 109
-94 133 -99 127 -3 -3 -28 -63 -57 -135 -50 -123 -241 -549 -345 -770 l-47
-100 -59 120 c-261 533 -470 994 -476 1049 -8 69 39 99 205 131 l32 7 0 74 0
74 -625 0 -625 0 0 -74z"/>
</g>
</svg>
