<?xml version="1.0" standalone="no"?>
<!DOCTYPE svg PUBLIC "-//W3C//DTD SVG 20010904//EN"
 "http://www.w3.org/TR/2001/REC-SVG-20010904/DTD/svg10.dtd">
<svg version="1.0" xmlns="http://www.w3.org/2000/svg"
 width="225.000000pt" height="225.000000pt" viewBox="0 0 225.000000 225.000000"
 preserveAspectRatio="xMidYMid meet">
<metadata>
Created by potrace 1.14, written by Peter Selinger 2001-2017
</metadata>
<g transform="translate(0.000000,225.000000) scale(0.100000,-0.100000)"
fill="#000000" stroke="none">
<path d="M415 2031 c-11 -5 -29 -19 -40 -31 -20 -22 -20 -36 -20 -876 l0 -854
28 -27 27 -28 715 0 715 0 27 28 28 27 3 840 c2 739 0 844 -13 870 -32 62 -6
60 -762 59 -378 0 -697 -4 -708 -8z m389 -168 c-5 -5 -12 -12 -16 -18 -4 -6
-8 -2 -8 8 0 9 7 17 17 17 9 0 12 -3 7 -7z m311 -34 c11 -16 1 -19 -13 -3 -7
8 -8 14 -3 14 5 0 13 -5 16 -11z m-305 -19 c0 -5 -8 -10 -17 -10 -15 0 -16 2
-3 10 19 12 20 12 20 0z m63 -17 c-46 -18 36 -22 434 -23 245 0 449 -2 451 -5
3 -3 -295 -5 -663 -5 -368 0 -666 2 -663 5 3 3 88 6 189 6 129 1 186 4 191 12
6 9 8 9 8 0 0 -7 5 -13 10 -13 6 0 10 7 10 15 0 9 9 15 23 14 12 0 16 -3 10
-6z m217 3 c0 -2 -11 -6 -25 -8 -14 -3 -25 -1 -25 3 0 5 11 9 25 9 14 0 25 -2
25 -4z m740 -801 c0 -676 -1 -695 -19 -705 -13 -6 -247 -10 -690 -10 -595 0
-671 2 -685 16 -14 14 -16 91 -16 705 l0 689 705 0 705 0 0 -695z"/>
<path d="M603 1610 c-34 -14 -46 -46 -41 -113 3 -43 10 -63 23 -73 15 -11 116
-14 542 -14 l522 0 21 22 c31 34 29 130 -5 163 l-24 25 -508 -1 c-279 0 -518
-4 -530 -9z m97 -95 c0 -33 -2 -35 -35 -35 -32 0 -35 3 -35 28 0 36 6 42 42
42 25 0 28 -3 28 -35z m778 -2 l3 -33 -355 0 -356 0 0 28 c0 16 3 32 7 35 4 4
162 6 352 5 l346 -3 3 -32z m142 2 c0 -33 -2 -35 -35 -35 -33 0 -35 2 -35 35
0 33 2 35 35 35 33 0 35 -2 35 -35z"/>
<path d="M603 1330 c-39 -16 -43 -39 -43 -278 0 -211 2 -232 19 -253 19 -24
23 -24 212 -27 198 -3 241 3 254 36 8 21 8 474 -1 495 -3 9 -19 20 -36 26 -37
13 -373 14 -405 1z m361 -66 c14 -5 16 -28 16 -145 l0 -139 -172 2 -173 3 -3
129 c-1 72 0 136 2 143 4 10 42 13 160 13 85 0 161 -3 170 -6z m14 -386 l-3
-33 -170 0 -170 0 -3 33 -3 32 176 0 176 0 -3 -32z"/>
<path d="M1233 1328 c-12 -6 -25 -18 -30 -27 -11 -23 -12 -439 -1 -479 6 -22
18 -36 36 -43 15 -6 105 -9 220 -7 190 3 194 3 213 27 17 21 19 42 19 256 0
214 -2 235 -19 256 -19 24 -22 24 -218 26 -127 1 -206 -2 -220 -9z m375 -66
c9 -7 12 -42 10 -143 l-3 -134 -170 0 -170 0 -3 137 -3 137 48 4 c96 7 278 6
291 -1z m12 -382 c0 -39 -11 -41 -195 -38 l-150 3 -3 33 -3 32 175 0 176 0 0
-30z"/>
<path d="M803 702 l-243 -2 0 -35 0 -35 247 2 246 3 3 32 c1 18 -1 34 -4 35
-4 2 -116 2 -249 0z"/>
<path d="M1195 681 c-3 -10 -3 -26 1 -35 5 -14 33 -16 250 -16 l244 0 0 35 0
35 -244 0 c-230 0 -245 -1 -251 -19z"/>
<path d="M630 525 l0 -35 177 2 177 3 3 33 4 32 -180 0 -181 0 0 -35z"/>
<path d="M1268 525 l4 -35 174 0 174 0 0 35 0 35 -178 0 -178 0 4 -35z"/>
</g>
</svg>
